<svg xmlns="http://www.w3.org/2000/svg" xmlns:xlink="http://www.w3.org/1999/xlink" width="160" height="43" viewBox="0 0 160 43">
  <defs>
    <style>
      .cls-1 {
        clip-path: url(#clip-acme-logo);
      }

      .cls-2 {
        fill: #555d66;
      }

      .cls-3 {
        fill: rgba(255,255,255,0);
      }
    </style>
    <clipPath id="clip-acme-logo">
      <rect width="160" height="43"/>
    </clipPath>
  </defs>
  <g id="acme-logo" class="cls-1">
    <rect class="cls-3" width="160" height="43"/>
    <path id="Path_10" data-name="Path 10" class="cls-2" d="M24.938-19.49H29.12l-1.884-5.934H14.328L12.445-19.49h4.432v7.458H.949V-19.49h3.13L15.519-53.3H26.627L37.818-19.49h3.047v7.458H24.938Zm-8.421-12.9h8.476L20.727-45.811Zm46.428,1.905a8.28,8.28,0,0,0-2.659-2.218,6.7,6.7,0,0,0-3.463-.64,6.415,6.415,0,0,0-2.922.436,6.723,6.723,0,0,0-2.271,1.524,6.871,6.871,0,0,0-1.482,2.327,8.286,8.286,0,0,0-.526,3.035,7.306,7.306,0,0,0,.554,2.831,7.108,7.108,0,0,0,1.51,2.3,6.824,6.824,0,0,0,2.271,1.511,9.119,9.119,0,0,0,2.867.653,8.287,8.287,0,0,0,2.368-.531,7.3,7.3,0,0,0,1.9-1.089,7.587,7.587,0,0,0,1.427-1.5,9.3,9.3,0,0,0,.928-1.565l7.618,2.069a12.845,12.845,0,0,1-1.62,3.4,13.509,13.509,0,0,1-2.992,3.226A16.176,16.176,0,0,1,62.072-12.3a16.337,16.337,0,0,1-5.775.953,15.274,15.274,0,0,1-6.066-1.184,14.6,14.6,0,0,1-4.764-3.226,14.754,14.754,0,0,1-3.116-4.791,15.482,15.482,0,0,1-1.122-5.907,14.591,14.591,0,0,1,1.15-5.811,14.62,14.62,0,0,1,3.172-4.682,14.325,14.325,0,0,1,4.806-3.117,14.77,14.77,0,0,1,6.052-1.007,13.937,13.937,0,0,1,4.515.517,15.792,15.792,0,0,1,4.155,1.878H70.59v8.193Zm8.977-9.745h13.13v2.45a14.619,14.619,0,0,1,3.989-2.2,13.117,13.117,0,0,1,4.571-.817,12.8,12.8,0,0,1,5.609,1.13,8.336,8.336,0,0,1,3.67,3.443,13.257,13.257,0,0,1,2.064-1.837,15.3,15.3,0,0,1,2.451-1.443,14.047,14.047,0,0,1,2.728-.953,12.553,12.553,0,0,1,2.922-.34q5.263,0,8.088,2.858t2.825,8.356v10.1h4.072v7.458h-13.1V-28.2a5.316,5.316,0,0,0-1.26-3.756,4.539,4.539,0,0,0-3.5-1.361,6.187,6.187,0,0,0-2.922.721,8.734,8.734,0,0,0-2.728,2.491q.028.3.028.612v10h4.155v7.458h-13.1V-28.255a5.664,5.664,0,0,0-.36-2.069,4.638,4.638,0,0,0-1-1.579,4.55,4.55,0,0,0-1.51-1.021,5.269,5.269,0,0,0-1.925-.395,6.989,6.989,0,0,0-2.867.6,7.507,7.507,0,0,0-2.839,2.314V-19.49h4.6v7.458H71.866V-19.49h4.266V-32.773h-4.21ZM136.77-24.362l.083.844a5.58,5.58,0,0,0,1.039,2.15,6.829,6.829,0,0,0,1.731,1.552,7.775,7.775,0,0,0,2.216.939,9.872,9.872,0,0,0,2.465.313,17.913,17.913,0,0,0,2.368-.15,20.445,20.445,0,0,0,2.174-.408q1.053-.259,2.05-.6t2.022-.721l3.047,5.58q-1.579.953-2.895,1.62a18.784,18.784,0,0,1-2.645,1.1,16.021,16.021,0,0,1-2.825.64,26.143,26.143,0,0,1-3.49.2,17.166,17.166,0,0,1-6.648-1.211,14.246,14.246,0,0,1-4.889-3.28,14.031,14.031,0,0,1-3.019-4.845,16.64,16.64,0,0,1-1.039-5.879,15.471,15.471,0,0,1,1.094-5.825,14.306,14.306,0,0,1,3.089-4.75,14.53,14.53,0,0,1,4.764-3.2,15.648,15.648,0,0,1,6.149-1.17,15.336,15.336,0,0,1,6,1.1,12.576,12.576,0,0,1,4.418,3.049,13.572,13.572,0,0,1,2.77,4.573,17.6,17.6,0,0,1,1.053,5.648,13.414,13.414,0,0,1,.1,1.347q.014.667-.042,1.375Zm6.62-10.289a8.362,8.362,0,0,0-2.645.367,5.484,5.484,0,0,0-1.842,1.007,5.13,5.13,0,0,0-1.191,1.456,8.155,8.155,0,0,0-.692,1.715h11.994a8.753,8.753,0,0,0-.554-1.742,4.616,4.616,0,0,0-1-1.443,4.543,4.543,0,0,0-1.62-.994A7.062,7.062,0,0,0,143.39-34.651Z" transform="translate(0.051 53.297)"/>
  </g>
</svg>
