<svg xmlns="http://www.w3.org/2000/svg" width="175" height="60"><defs><clipPath id="a"><path d="M0 0h175v60H0z"/></clipPath></defs><g data-name="main-logo" clip-path="url(#a)"><path fill="rgba(255,255,255,0)" d="M0 0h175v60H0z"/><path data-name="logo-path" d="M34.919 42.197h4l-1.8-5.651H24.783l-1.8 5.651h4.234v7.1H12v-7.1h2.991l10.93-32.2h10.612l10.692 32.2h2.911v7.1H34.919zm-8.045-12.288h8.1l-4.076-12.78zm44.357 1.815a7.905 7.905 0 00-2.541-2.113 6.423 6.423 0 00-3.308-.609 6.146 6.146 0 00-2.792.415 6.425 6.425 0 00-2.17 1.452 6.541 6.541 0 00-1.416 2.216 7.869 7.869 0 00-.5 2.89 6.939 6.939 0 00.529 2.7 6.767 6.767 0 001.442 2.191 6.521 6.521 0 002.168 1.431 8.736 8.736 0 002.739.622 7.939 7.939 0 002.263-.506 6.977 6.977 0 001.813-1.037 7.235 7.235 0 001.363-1.426 8.852 8.852 0 00.887-1.491l7.278 1.97a12.216 12.216 0 01-1.548 3.24 12.882 12.882 0 01-2.858 3.072 15.469 15.469 0 01-4.181 2.294 15.654 15.654 0 01-5.518.907 14.633 14.633 0 01-5.8-1.128 13.95 13.95 0 01-4.552-3.072 14.047 14.047 0 01-2.978-4.556 14.7 14.7 0 01-1.072-5.625 13.858 13.858 0 011.1-5.535 13.921 13.921 0 013.03-4.459 13.691 13.691 0 014.594-2.97 14.152 14.152 0 015.783-.959 13.356 13.356 0 014.314.493 15.111 15.111 0 013.97 1.789h5.267v7.8zm8.577-9.281h12.543v2.333a13.98 13.98 0 013.811-2.1 12.568 12.568 0 014.367-.778 12.264 12.264 0 015.359 1.076 7.954 7.954 0 013.507 3.279 12.653 12.653 0 011.972-1.75 14.631 14.631 0 012.342-1.374 13.45 13.45 0 012.607-.907 12.03 12.03 0 012.792-.324q5.028 0 7.728 2.722t2.7 7.959v9.618h3.89v7.1h-12.518v-15.4a5.052 5.052 0 00-1.2-3.577 4.344 4.344 0 00-3.348-1.3 5.926 5.926 0 00-2.792.687 8.335 8.335 0 00-2.607 2.372q.026.285.026.583v9.535h3.97v7.1h-12.521v-15.45a5.379 5.379 0 00-.344-1.97 4.416 4.416 0 00-.953-1.5 4.348 4.348 0 00-1.442-.972 5.048 5.048 0 00-1.839-.376 6.7 6.7 0 00-2.739.57 7.168 7.168 0 00-2.713 2.2v10.4h4.393v7.098H79.751v-7.1h4.08V29.546h-4.023zm61.957 15.114l.079.8a5.308 5.308 0 00.992 2.048 6.518 6.518 0 001.654 1.478 7.441 7.441 0 002.117.894 9.461 9.461 0 002.355.3 17.168 17.168 0 002.263-.143 19.589 19.589 0 002.077-.389q1.006-.246 1.958-.57t1.932-.687l2.911 5.314q-1.508.907-2.766 1.542a17.978 17.978 0 01-2.527 1.05 15.348 15.348 0 01-2.7.609 25.056 25.056 0 01-3.335.194 16.446 16.446 0 01-6.352-1.154 13.614 13.614 0 01-4.671-3.124 13.356 13.356 0 01-2.885-4.614 15.8 15.8 0 01-.992-5.6 14.693 14.693 0 011.045-5.548 13.62 13.62 0 012.951-4.524 13.885 13.885 0 014.552-3.046 14.992 14.992 0 015.875-1.115 14.693 14.693 0 015.73 1.05 12.016 12.016 0 014.221 2.9 12.918 12.918 0 012.646 4.355 16.715 16.715 0 011.006 5.379 12.732 12.732 0 01.093 1.283q.013.635-.04 1.309zm6.325-9.8a8.013 8.013 0 00-2.527.35 5.244 5.244 0 00-1.76.959 4.889 4.889 0 00-1.138 1.387 7.753 7.753 0 00-.662 1.633h11.459a8.317 8.317 0 00-.529-1.659 4.4 4.4 0 00-.953-1.374 4.342 4.342 0 00-1.548-.946 6.767 6.767 0 00-2.342-.349z" fill="#707070"/></g></svg>