<svg xmlns="http://www.w3.org/2000/svg" width="210" height="60"><defs><clipPath id="a"><path d="M0 0h210v60H0z"/></clipPath></defs><g clip-path="url(#a)"><path fill="#fff" d="M0 0h210v60H0z"/><path data-name="Path 9" d="M4 47.409h5.449V13.157H4V3.345l25.98.071a16.6 16.6 0 016.627 1.293 16.136 16.136 0 015.186 3.507 15.876 15.876 0 013.393 5.171 16.408 16.408 0 011.213 6.287 13.668 13.668 0 01-1.354 6.447 10.673 10.673 0 01-3.85 4.109 13.142 13.142 0 014.166 4.2 11.419 11.419 0 011.529 6.073 17.494 17.494 0 01-1.248 6.694 16.256 16.256 0 01-3.41 5.26 15.173 15.173 0 01-5.115 3.435 16.476 16.476 0 01-6.363 1.222H4zm17.121-12.506v12.5h8.859a3.7 3.7 0 001.916-.531 5.3 5.3 0 001.547-1.4 7.116 7.116 0 001.037-2.019 7.458 7.458 0 00.387-2.391 7.362 7.362 0 00-.387-2.426 6.463 6.463 0 00-1.053-1.942 5.031 5.031 0 00-1.564-1.311 3.942 3.942 0 00-1.881-.478zm0-21.748v12.048h8.367a3.734 3.734 0 001.863-.5 5.129 5.129 0 001.529-1.328 6.935 6.935 0 001.038-1.872 6.226 6.226 0 00.387-2.178 6.574 6.574 0 00-.387-2.2 7.582 7.582 0 00-1.037-1.984 5.521 5.521 0 00-1.53-1.438 3.459 3.459 0 00-1.863-.549zM47.948 2.003h16.418v45.406h5.625v9.705H47.948v-9.705h5.625V11.703h-5.625zm47.679 53.128q-1.23.779-2.25 1.328a12.7 12.7 0 01-2.039.886 12.478 12.478 0 01-2.109.5 16.577 16.577 0 01-2.391.159 17.677 17.677 0 01-5.854-.9 12.877 12.877 0 01-4.359-2.479 10.738 10.738 0 01-2.729-3.722 11.371 11.371 0 01-.949-4.658 11.4 11.4 0 01.967-4.711 10.271 10.271 0 012.795-3.7 13.261 13.261 0 014.482-2.409 19.494 19.494 0 016.064-.868 35.719 35.719 0 014.553.266q2.057.266 3.814.655v-1.133a5.1 5.1 0 00-.527-2.391 4.565 4.565 0 00-1.477-1.665 6.492 6.492 0 00-2.285-.956 13.272 13.272 0 00-2.918-.3 23.181 23.181 0 00-5.818.655 22.005 22.005 0 00-4.834 1.9l-3.375-6.885a29.753 29.753 0 017.506-3.79 26.05 26.05 0 018.314-1.31 24.8 24.8 0 016.311.762 12.759 12.759 0 014.975 2.479 11.6 11.6 0 013.252 4.481 17.149 17.149 0 011.178 6.73v13.354l9.425-.018v9.706l-19.722.017zm-8.02-5.49a12.124 12.124 0 004.535-.815 13.344 13.344 0 003.485-1.984v-4.676h-8.442a5.152 5.152 0 00-1.582.248 4.684 4.684 0 00-1.389.708 3.506 3.506 0 00-.984 1.133 3.189 3.189 0 00-.369 1.559 3.577 3.577 0 001.177 2.729 5.074 5.074 0 003.569 1.098zm57.694-13.638a6.859 6.859 0 00-1.617-4.835 5.556 5.556 0 00-4.289-1.753 9.16 9.16 0 00-3.691.815 9.789 9.789 0 00-3.621 3.046v14.133h5.906v9.705h-22.641v-9.705h5.344V30.124h-5.273v-9.705h16.594v3.223a18.544 18.544 0 015.115-2.851 17.066 17.066 0 015.959-1.045q6.574 0 10.125 3.7t3.551 10.821v13.142h6.3v9.705h-17.762zm17.757-34h16.418v31.772h6.151l2.531-3.648v-9.705h18.844v9.705h-6.539l-6.785 7.9 6.926 8.43h6.047v10.657h-9.879L184.96 41.388h-5.484v6.022h3.727v9.704h-20.145v-9.705h5.625V11.703h-5.625z" fill="#707070"/></g></svg>