<svg xmlns="http://www.w3.org/2000/svg" xmlns:xlink="http://www.w3.org/1999/xlink" width="175" height="60" viewBox="0 0 175 60">
  <defs>
    <clipPath id="clip-main-logo">
      <rect width="175" height="60"/>
    </clipPath>
  </defs>
  <g id="main-logo" data-name="main-logo" clip-path="url(#clip-main-logo)">
    <rect width="175" height="60" fill="rgba(255,255,255,0)"/>
    <path id="logo-path" data-name="logo-path" d="M23.868-21.1h4l-1.8-5.651H13.732l-1.8,5.651h4.234V-14H.949v-7.1H3.94L14.87-53.3H25.482L36.174-21.1h2.911V-14H23.868ZM15.823-33.388h8.1l-4.076-12.78ZM60.18-31.573a7.905,7.905,0,0,0-2.541-2.113,6.423,6.423,0,0,0-3.308-.609,6.146,6.146,0,0,0-2.792.415,6.425,6.425,0,0,0-2.17,1.452,6.541,6.541,0,0,0-1.416,2.216,7.869,7.869,0,0,0-.5,2.89,6.939,6.939,0,0,0,.529,2.7,6.767,6.767,0,0,0,1.442,2.191A6.521,6.521,0,0,0,51.592-21a8.736,8.736,0,0,0,2.739.622,7.939,7.939,0,0,0,2.263-.506,6.977,6.977,0,0,0,1.813-1.037,7.235,7.235,0,0,0,1.363-1.426,8.852,8.852,0,0,0,.887-1.491l7.278,1.97a12.216,12.216,0,0,1-1.548,3.24,12.882,12.882,0,0,1-2.858,3.072,15.469,15.469,0,0,1-4.181,2.294,15.654,15.654,0,0,1-5.518.907,14.633,14.633,0,0,1-5.8-1.128,13.95,13.95,0,0,1-4.552-3.072A14.047,14.047,0,0,1,40.5-22.111a14.7,14.7,0,0,1-1.072-5.625,13.858,13.858,0,0,1,1.1-5.535,13.921,13.921,0,0,1,3.03-4.459A13.691,13.691,0,0,1,48.152-40.7a14.152,14.152,0,0,1,5.783-.959,13.356,13.356,0,0,1,4.314.493,15.111,15.111,0,0,1,3.97,1.789h5.267v7.8Zm8.577-9.281H81.3v2.333a13.98,13.98,0,0,1,3.811-2.1,12.568,12.568,0,0,1,4.367-.778,12.264,12.264,0,0,1,5.359,1.076,7.954,7.954,0,0,1,3.507,3.279,12.653,12.653,0,0,1,1.972-1.75,14.631,14.631,0,0,1,2.342-1.374,13.45,13.45,0,0,1,2.607-.907,12.03,12.03,0,0,1,2.792-.324q5.028,0,7.728,2.722t2.7,7.959V-21.1h3.89V-14H109.857V-29.4a5.052,5.052,0,0,0-1.2-3.577,4.344,4.344,0,0,0-3.348-1.3,5.926,5.926,0,0,0-2.792.687,8.335,8.335,0,0,0-2.607,2.372q.026.285.026.583V-21.1h3.97V-14H91.385v-15.45a5.379,5.379,0,0,0-.344-1.97,4.416,4.416,0,0,0-.953-1.5,4.348,4.348,0,0,0-1.442-.972,5.048,5.048,0,0,0-1.839-.376,6.7,6.7,0,0,0-2.739.57,7.168,7.168,0,0,0-2.713,2.2v10.4h4.393V-14H68.7v-7.1H72.78V-33.751H68.757ZM130.714-25.74l.079.8a5.308,5.308,0,0,0,.992,2.048,6.518,6.518,0,0,0,1.654,1.478,7.441,7.441,0,0,0,2.117.894,9.461,9.461,0,0,0,2.355.3,17.168,17.168,0,0,0,2.263-.143,19.589,19.589,0,0,0,2.077-.389q1.006-.246,1.958-.57t1.932-.687l2.911,5.314q-1.508.907-2.766,1.542a17.978,17.978,0,0,1-2.527,1.05,15.348,15.348,0,0,1-2.7.609,25.056,25.056,0,0,1-3.335.194,16.446,16.446,0,0,1-6.352-1.154,13.614,13.614,0,0,1-4.671-3.124,13.356,13.356,0,0,1-2.885-4.614,15.8,15.8,0,0,1-.992-5.6,14.693,14.693,0,0,1,1.045-5.548,13.62,13.62,0,0,1,2.951-4.524,13.885,13.885,0,0,1,4.552-3.046,14.992,14.992,0,0,1,5.875-1.115,14.693,14.693,0,0,1,5.73,1.05,12.016,12.016,0,0,1,4.221,2.9,12.918,12.918,0,0,1,2.646,4.355,16.715,16.715,0,0,1,1.006,5.379,12.732,12.732,0,0,1,.093,1.283q.013.635-.04,1.309Zm6.325-9.8a8.013,8.013,0,0,0-2.527.35,5.244,5.244,0,0,0-1.76.959,4.889,4.889,0,0,0-1.138,1.387,7.753,7.753,0,0,0-.662,1.633h11.459a8.317,8.317,0,0,0-.529-1.659,4.4,4.4,0,0,0-.953-1.374,4.342,4.342,0,0,0-1.548-.946A6.767,6.767,0,0,0,137.039-35.539Z" transform="translate(11.051 63.297)" fill="#707070"/>
  </g>
</svg>
